{"title":"The.Unforgiving.2010.DVDRip.XviD-NoGRP","uid":6291874,"size":751440133,"categoryP":"video","categoryS":"movies","magnet":"?xt=urn:btih:0d3f5d4c25cf90403fc420bb6ab71615b3e4be30&amp;dn=The.Unforgiving.2010.DVDRip.XviD-NoGRP&amp;tr=udp%3A%2F%2Ftracker.openbittorrent.com%3A80&amp;tr=udp%3A%2F%2Fopen.demonii.com%3A1337&amp;tr=udp%3A%2F%2Ftracker.coppersurfer.tk%3A6969&amp;tr=udp%3A%2F%2Fexodus.desync.com%3A6969","seeders":0,"leechers":0,"uploader":"FanPIX","files":2,"time":1301847457,"description":"The.Unforgiving.2010.DVDRip.XviD-NoGRP\n\nYou are required to register atto download this torrent.\nThe owner of the site would like to assure you that we do not charge to register and you are free to download.\nAny of our torrents providing you keep to the site rules which are to keep a 1:1 ratio.\nWe have some of the latest movies/music/software/games to download at excellent speeds.\nPop into our shoutbox for a chat with OUR friendly and helpful staff. Join our new site with a refreshing attitude towards sharing\n\nFormat: AVI\nFormat/Info: Audio Video Interleave\nFile size: 717 MiB\nDuration : 1h 15mn\nOverall bit rate: 1 332 Kbps\nIMDb Link: http://www.imdb.com/title/tt1717229/\nIMDb Rating: 6.4/10 (18 votes)\n\nVideo\nFormat : AVC\nFormat/Info : Advanced Video Codec\nCodec ID : H264\nDuration : 1h 15mn\nBit rate : 1 097 Kbps\nWidth : 720 pixels\nHeight : 406 pixels\nDisplay aspect ratio : 16:9\nFrame rate : 25.000 fps\nBits/(Pixel*Frame) : 0.150\nStream size : 590 MiB (82%)\n\nAudio\nFormat : AC-3\nFormat/Info : Audio Coding 3\nFormat_Settings_ModeExtension : CM (complete main)\nCodec ID : 2000\nDuration : 1h 15mn\nBit rate mode : Constant\nBit rate : 224 Kbps\nChannel(s) : 2 channels\nChannel positions : Front: L R\nSampling rate : 48.0 KHz\nStream size : 120 MiB (17%)\nAlignment : Aligned on interleaves\nInterleave, duration : 32 ms (0.80 video frame)\nInterleave, preload duration : 32 ms\n\nCast\nRyan Macquet ... Rex Dobson\nCraig Hawks ... Vincent Davies\nClaire Opperman ... Alice Edmonds\nMichael Thompson ... Detective James Hirsch\n\nPlot\nPray For Death.\nTwo survivors, who appear unwilling to answer questions, are the only links authorities have to a spate of attacks that have hit rural South Africa.\nRex Dobson and Alice Edmonds find themselves stranded alongside the R106, a freeway just outside Johannesburg. Waiting for help, they are abducted by a masked madman who does unthinkable things to them. Both survive, but wish they hadn\\'t. As their stories unfold, it is clear that the truth of what happened that fateful day is far worse than anyone could imagine.","torrent":{"xt":"urn:btih:0d3f5d4c25cf90403fc420bb6ab71615b3e4be30","amp;dn":"The.Unforgiving.2010.DVDRip.XviD-NoGRP","amp;tr":["udp%3A%2F%2Ftracker.openbittorrent.com%3A80","udp%3A%2F%2Fopen.demonii.com%3A1337","udp%3A%2F%2Ftracker.coppersurfer.tk%3A6969","udp%3A%2F%2Fexodus.desync.com%3A6969"],"infoHash":"0d3f5d4c25cf90403fc420bb6ab71615b3e4be30","infoHashBuffer":{"type":"Buffer","data":[13,63,93,76,37,207,144,64,63,196,32,187,106,183,22,21,179,228,190,48]},"announce":[],"urlList":[]}}